<?xml version="1.0" encoding="utf-8"?>
<!-- Generator: Adobe Illustrator 25.3.1, SVG Export Plug-In . SVG Version: 6.00 Build 0)  -->
<svg version="1.1" id="圖層_1" xmlns="http://www.w3.org/2000/svg" xmlns:xlink="http://www.w3.org/1999/xlink" x="0px" y="0px"
	 viewBox="0 0 34.1 29" style="enable-background:new 0 0 34.1 29;" xml:space="preserve">
<style type="text/css">
	.st0{fill:#F2F0C9;}
</style>
<path class="st0" d="M32.7,3.1H9.3C8.6,3.1,8,2.5,8,1.8C8,1,8.6,0.4,9.3,0.4h23.4c0.8,0,1.4,0.6,1.4,1.4C34.1,2.5,33.4,3.1,32.7,3.1
	z"/>
<path class="st0" d="M32.7,15.8H9.3c-0.8,0-1.4-0.6-1.4-1.4c0-0.8,0.6-1.4,1.4-1.4h23.4c0.8,0,1.4,0.6,1.4,1.4
	C34.1,15.2,33.4,15.8,32.7,15.8z"/>
<path class="st0" d="M32.7,28.8H9.3c-0.8,0-1.4-0.6-1.4-1.4s0.6-1.4,1.4-1.4l0,0h23.4c0.8,0,1.4,0.6,1.4,1.4S33.4,28.8,32.7,28.8
	L32.7,28.8z"/>
<circle class="st0" cx="1.4" cy="1.6" r="1.6"/>
<circle class="st0" cx="1.6" cy="14.6" r="1.6"/>
<circle class="st0" cx="1.6" cy="27.4" r="1.6"/>
</svg>
