<?xml version="1.0" encoding="utf-8"?>
<!-- Generator: Adobe Illustrator 25.3.1, SVG Export Plug-In . SVG Version: 6.00 Build 0)  -->
<svg version="1.1" id="圖層_1" xmlns="http://www.w3.org/2000/svg" xmlns:xlink="http://www.w3.org/1999/xlink" x="0px" y="0px"
	 viewBox="0 0 44 44" style="enable-background:new 0 0 44 44;" xml:space="preserve">
<style type="text/css">
	.st0{fill:#F2F0C9;}
</style>
<path class="st0" d="M24.9,44h-5.8c-0.4,0-0.7-0.3-0.8-0.7l-0.9-5.2c-1.3-0.4-2.5-0.9-3.7-1.5l-4.2,3.1c-0.3,0.2-0.8,0.2-1-0.1
	l-4.1-4.1c-0.3-0.3-0.3-0.7-0.1-1l3-4.3c-0.6-1.2-1.2-2.4-1.5-3.7l-5.1-0.8C0.3,25.7,0,25.3,0,24.9v-5.8c0-0.4,0.3-0.7,0.7-0.8
	l5.2-0.9c0.4-1.3,0.9-2.5,1.5-3.7L4.3,9.5c-0.2-0.3-0.2-0.8,0.1-1l4.1-4.1c0.3-0.3,0.7-0.3,1-0.1l4.3,3c1.2-0.6,2.4-1.2,3.7-1.5
	l0.8-5.1C18.4,0.3,18.7,0,19.1,0h5.8c0.4,0,0.7,0.3,0.8,0.7l0.9,5.2c1.3,0.4,2.5,0.9,3.7,1.5l4.2-3.1c0.3-0.2,0.8-0.2,1,0.1l4.1,4.1
	c0.3,0.3,0.3,0.7,0.1,1l-3,4.3c0.6,1.2,1.2,2.4,1.5,3.7l5.1,0.8c0.4,0.1,0.7,0.4,0.7,0.8v5.8c0,0.4-0.3,0.7-0.7,0.8l-5.2,0.9
	c-0.4,1.3-0.9,2.5-1.5,3.7l3.1,4.2c0.2,0.3,0.2,0.8-0.1,1l-4.1,4.1c-0.3,0.3-0.7,0.3-1,0.1l-4.3-3c-1.2,0.6-2.4,1.2-3.7,1.5
	l-0.8,5.1C25.6,43.7,25.3,44,24.9,44z M19.7,42.4h4.5l0.7-5c0-0.3,0.3-0.6,0.6-0.7c1.5-0.4,2.9-0.9,4.2-1.7c0.3-0.2,0.6-0.1,0.9,0
	l4.2,2.9l3.2-3.2l-3-4c-0.2-0.3-0.2-0.6,0-0.9c0.8-1.3,1.4-2.7,1.8-4.2c0.1-0.3,0.3-0.5,0.6-0.6l5-0.9v-4.5l-5-0.7
	c-0.3,0-0.6-0.3-0.7-0.6c-0.4-1.5-0.9-2.9-1.7-4.2c-0.2-0.3-0.1-0.6,0-0.9L38,9.2L34.8,6l-4,3c-0.3,0.2-0.6,0.2-0.9,0
	c-1.3-0.8-2.7-1.4-4.2-1.8c-0.3-0.1-0.5-0.3-0.6-0.6l-0.9-5h-4.5l-0.7,5c0,0.3-0.3,0.6-0.6,0.7c-1.5,0.4-2.9,0.9-4.2,1.7
	c-0.3,0.2-0.6,0.1-0.9,0L9.2,6L6,9.2l3,4c0.2,0.3,0.2,0.6,0,0.9c-0.8,1.3-1.4,2.7-1.8,4.2c-0.1,0.3-0.3,0.5-0.6,0.6l-5,0.9v4.5
	l5,0.7c0.3,0,0.6,0.3,0.7,0.6c0.4,1.5,0.9,2.9,1.7,4.2c0.2,0.3,0.1,0.6,0,0.9L6,34.8L9.2,38l4-3c0.3-0.2,0.6-0.2,0.9,0
	c1.3,0.8,2.7,1.4,4.2,1.8c0.3,0.1,0.5,0.3,0.6,0.6L19.7,42.4z M43.2,24.9L43.2,24.9z M22.1,27.9c-3.3,0-6-2.7-6-6c0-3.3,2.7-6,6-6
	c3.3,0,6,2.7,6,6C28.1,25.2,25.4,27.9,22.1,27.9z M22.1,17.5c-2.4,0-4.4,2-4.4,4.4c0,2.4,2,4.4,4.4,4.4c2.4,0,4.4-2,4.4-4.4
	C26.5,19.5,24.5,17.5,22.1,17.5L22.1,17.5z"/>
</svg>
